<?xml version="1.0" encoding="UTF-8"?>
<svg id="Calque_2" data-name="Calque 2" xmlns="http://www.w3.org/2000/svg" viewBox="0 0 439.83 157.22">
  <defs>
    <style>
      .cls-1 {
        fill: #00a259;
      }

      .cls-2 {
        fill: #5ab379;
      }
    </style>
  </defs>
  <g id="Calque_1-2" data-name="Calque 1">
    <path class="cls-1" d="m15.79,47.2v31.26s-15.69,0-15.69,0v-31.38c0-4.17.8-8.17,2.39-12.01,1.59-3.84,3.86-7.23,6.8-10.18s6.33-5.21,10.18-6.8c3.84-1.59,7.85-2.39,12.01-2.39,4.84,0,9.45,1.07,13.85,3.22,3.27,1.59,6.22,3.79,8.76,6.4.31.32.62.65.93.99.32-.35.64-.69.96-1.02,2.54-2.61,5.51-4.8,8.79-6.4,4.38-2.13,8.97-3.19,13.79-3.19,4.17,0,8.17.8,12.01,2.39,3.84,1.59,7.23,3.86,10.18,6.8s5.21,6.33,6.8,10.18c1.59,3.84,2.39,7.85,2.39,12.01v31.38h-15.69v-31.12c0-3.94-1.34-7.81-3.99-10.72-3.57-3.91-8.05-5.63-13.43-5.15-2.93.26-5.73,1.41-8,3.28-3.97,3.29-5.96,7.4-5.96,12.33v31.38h-15.69v-31.26c0-3.75-1.24-7.44-3.71-10.26-3.23-3.7-7.23-5.55-11.98-5.55s-8.75,1.85-11.98,5.55c-2.47,2.82-3.71,6.52-3.71,10.27Z"/>
    <path class="cls-1" d="m144.51,78.46c-4.17,0-8.17-.8-12.01-2.39-3.84-1.59-7.23-3.86-10.18-6.8s-5.21-6.33-6.8-10.18c-1.59-3.84-2.39-7.85-2.39-12.01s.8-8.17,2.39-12.01c1.59-3.84,3.86-7.23,6.8-10.18s6.33-5.21,10.18-6.8c3.84-1.59,7.85-2.39,12.01-2.39s8.17.8,12.01,2.39c3.84,1.59,7.23,3.86,10.18,6.8s5.21,6.33,6.8,10.18c1.59,3.84,2.39,7.85,2.39,12.01s-.8,8.17-2.39,12.01c-1.59,3.84-3.86,7.23-6.8,10.18s-6.33,5.21-10.18,6.8c-3.84,1.59-7.85,2.39-12.01,2.39Zm-.86-15.71c5,.23,9.18-1.51,12.56-5.2,2.4-2.63,3.82-6.05,3.98-9.6.23-4.99-1.51-9.18-5.2-12.55-2.63-2.4-6.05-3.82-9.61-3.98-4.99-.23-9.18,1.5-12.55,5.2-2.4,2.63-3.82,6.05-3.99,9.61-.23,5,1.51,9.18,5.2,12.55,2.63,2.4,6.05,3.82,9.61,3.98Z"/>
    <path class="cls-1" d="m194.83,47.2v31.26s-15.69,0-15.69,0v-31.38c0-4.17.8-8.17,2.39-12.01,1.59-3.84,3.86-7.23,6.8-10.18,2.94-2.94,6.33-5.21,10.18-6.8,3.84-1.59,7.85-2.39,12.01-2.39s8.17.8,12.01,2.39c3.84,1.59,7.23,3.86,10.17,6.8,2.94,2.94,5.21,6.33,6.8,10.18,1.59,3.84,2.39,7.85,2.39,12.01v31.38h-15.69v-31.27c0-3.75-1.24-7.44-3.71-10.26-3.23-3.7-7.23-5.55-11.98-5.55s-8.75,1.85-11.98,5.55c-2.47,2.82-3.71,6.52-3.71,10.27Z"/>
    <path class="cls-1" d="m261.46,19.92c1.18-.69,2.41-1.31,3.68-1.84,3.84-1.59,7.85-2.39,12.01-2.39s8.17.8,12.01,2.39c3.84,1.59,7.23,3.86,10.17,6.8,2.94,2.94,5.21,6.33,6.8,10.18,1.59,3.84,2.39,7.85,2.39,12.01s-.8,8.17-2.39,12.01c-1.59,3.84-3.86,7.23-6.8,10.18-2.94,2.94-6.33,5.21-10.17,6.8-3.84,1.59-7.85,2.39-12.01,2.39s-8.17-.8-12.01-2.39c-3.84-1.59-7.23-3.86-10.18-6.8-2.94-2.94-5.21-6.33-6.8-10.18-1.59-3.84-2.39-7.85-2.39-12.01V0h15.69v19.92Zm14.83,42.83c4.99.23,9.18-1.5,12.55-5.2,2.4-2.63,3.82-6.05,3.99-9.61.23-4.99-1.51-9.18-5.2-12.55-2.63-2.4-6.05-3.82-9.61-3.98-5-.23-9.18,1.51-12.55,5.2-2.4,2.63-3.82,6.05-3.98,9.61-.23,4.99,1.5,9.18,5.2,12.55,2.63,2.4,6.05,3.82,9.61,3.98Z"/>
    <path class="cls-1" d="m392.75,47.2v31.26s-15.69,0-15.69,0v-31.38c0-4.17.8-8.17,2.39-12.01,1.59-3.84,3.86-7.23,6.8-10.18,2.94-2.94,6.33-5.21,10.18-6.8,3.84-1.59,7.85-2.39,12.01-2.39s8.17.8,12.01,2.39c3.84,1.59,7.23,3.86,10.17,6.8,2.94,2.94,5.21,6.33,6.8,10.18,1.59,3.84,2.39,7.85,2.39,12.01v31.38h-15.69v-31.27c0-3.75-1.24-7.44-3.71-10.26-3.23-3.7-7.23-5.55-11.98-5.55s-8.75,1.85-11.98,5.55c-2.47,2.82-3.71,6.52-3.71,10.27Z"/>
    <path class="cls-1" d="m62.87,125.79c0,4.17-.8,8.19-2.39,12.03-1.6,3.85-3.87,7.24-6.81,10.19s-6.34,5.22-10.19,6.81c-3.85,1.6-7.86,2.39-12.03,2.39s-8.19-.8-12.03-2.39c-3.85-1.6-7.24-3.87-10.19-6.81-2.95-2.95-5.22-6.34-6.81-10.19-1.6-3.85-2.39-7.86-2.39-12.03s.8-8.19,2.39-12.03c1.6-3.85,3.87-7.24,6.81-10.19,2.95-2.95,6.34-5.22,10.19-6.81,3.85-1.6,7.86-2.39,12.03-2.39s8.19.8,12.03,2.39c1.27.53,2.5,1.15,3.68,1.84v-23.95h15.72v51.15Zm-31.43,15.72c4.34,0,8.04-1.53,11.11-4.6,3.07-3.07,4.6-6.77,4.6-11.11s-1.53-8.04-4.6-11.11c-3.07-3.07-6.77-4.6-11.11-4.6s-8.04,1.53-11.11,4.6c-3.07,3.07-4.6,6.77-4.6,11.11s1.53,8.04,4.6,11.11c3.07,3.07,6.77,4.6,11.11,4.6Z"/>
    <path class="cls-2" d="m98.32,156.92c-4.14,0-8.11-.79-11.93-2.37-3.81-1.58-7.18-3.83-10.1-6.75-2.92-2.92-5.17-6.29-6.75-10.1-1.58-3.81-2.37-7.79-2.37-11.93s.79-8.11,2.37-11.93c1.58-3.81,3.83-7.18,6.75-10.1,2.92-2.92,6.29-5.17,10.1-6.75,3.81-1.58,7.79-2.37,11.93-2.37s8.11.79,11.93,2.37c3.81,1.58,7.18,3.83,10.1,6.75s5.17,6.29,6.75,10.1c1.58,3.81,2.37,7.79,2.37,11.93s-.79,8.11-2.37,11.93c-1.58,3.81-3.83,7.18-6.75,10.1s-6.29,5.17-10.1,6.75c-3.81,1.58-7.79,2.37-11.93,2.37Zm0-15.58c4.3,0,7.97-1.52,11.01-4.56,3.04-3.04,4.56-6.71,4.56-11.01s-1.52-7.97-4.56-11.01c-3.04-3.04-6.71-4.56-11.01-4.56s-7.97,1.52-11.01,4.56c-3.04,3.04-4.56,6.71-4.56,11.01s1.52,7.97,4.56,11.01c3.04,3.04,6.71,4.56,11.01,4.56Z"/>
    <path class="cls-2" d="m179.2,133.79l13.33,7.97c-1.3,2.19-2.86,4.2-4.69,6.02-2.92,2.92-6.29,5.17-10.1,6.75-3.81,1.58-7.79,2.37-11.93,2.37s-8.11-.79-11.93-2.37c-3.81-1.58-7.18-3.83-10.1-6.75-2.92-2.92-5.17-6.29-6.75-10.1-1.58-3.81-2.37-7.79-2.37-11.93s.79-8.11,2.37-11.93c1.58-3.81,3.83-7.18,6.75-10.1,2.92-2.92,6.29-5.17,10.1-6.75,3.81-1.58,7.79-2.37,11.93-2.37s8.11.79,11.93,2.37c3.81,1.58,7.18,3.83,10.1,6.75,1.83,1.83,3.39,3.83,4.69,6.02l-13.33,7.97c-.65-1.05-1.44-2.05-2.37-2.98-3.04-3.04-6.72-4.56-11.01-4.56s-7.97,1.52-11.01,4.56c-3.04,3.04-4.56,6.71-4.56,11.01s1.52,7.97,4.56,11.01c3.04,3.04,6.71,4.56,11.01,4.56s7.97-1.52,11.01-4.56c.93-.93,1.72-1.93,2.37-2.98Z"/>
    <path class="cls-2" d="m203.35,102.39v-23.37h15.58v23.37h15.58v15.58h-15.58v7.79c0,4.3,1.52,7.97,4.56,11.01,3.04,3.04,6.71,4.56,11.01,4.56v15.58c-4.14,0-8.11-.79-11.93-2.37-3.81-1.58-7.18-3.83-10.1-6.75s-5.17-6.29-6.75-10.1c-1.58-3.81-2.37-7.79-2.37-11.93v-7.79h-7.79v-15.58h7.79Z"/>
    <path class="cls-2" d="m284.42,114.56c-2.88-2.92-6.29-4.38-10.22-4.38-4.3,0-7.97,1.52-11.01,4.56-3.04,3.04-4.56,6.71-4.56,11.01s1.52,7.97,4.56,11.01c3.04,3.04,6.71,4.56,11.01,4.56s7.97-1.52,11.01-4.56c.93-.93,1.72-1.93,2.37-2.98l13.33,7.97c-1.3,2.19-2.86,4.2-4.69,6.02-2.92,2.92-6.29,5.17-10.1,6.75-3.81,1.58-7.79,2.37-11.93,2.37s-8.11-.79-11.93-2.37c-3.81-1.58-7.18-3.83-10.1-6.75-2.92-2.92-5.17-6.29-6.75-10.1-1.58-3.81-2.37-7.79-2.37-11.93s.79-8.11,2.37-11.93c1.58-3.81,3.83-7.18,6.75-10.1,2.92-2.92,6.29-5.17,10.1-6.75,3.81-1.58,7.79-2.37,11.93-2.37s8.11.79,11.93,2.37c3.81,1.58,7.18,3.83,10.1,6.75,2.92,2.92,5.17,6.29,6.75,10.1,1.42,3.45,2.21,7.02,2.37,10.71l-34.93,10.65-4.14-15.03,18.13-5.6Z"/>
    <path class="cls-2" d="m366.5,71.15c-2.51,2.51-5.36,4.59-8.5,6.19v48.42c0,4.3-1.52,7.97-4.57,11.02s-6.72,4.57-11.01,4.57-7.97-1.52-11.02-4.57-4.57-6.72-4.57-11.02v-48.44c-3.12-1.6-5.96-3.67-8.47-6.18-3.01-3.01-5.4-6.5-7.11-10.39v65c0,4.14.79,8.12,2.37,11.93,1.58,3.81,3.83,7.18,6.75,10.11,2.92,2.92,6.29,5.17,10.11,6.75,3.81,1.58,7.79,2.37,11.93,2.37s8.11-.79,11.92-2.37c3.81-1.58,7.19-3.83,10.11-6.75,2.92-2.93,5.17-6.29,6.75-10.11,1.58-3.81,2.37-7.79,2.37-11.93V60.82c-1.7,3.86-4.08,7.34-7.07,10.33Z"/>
    <path class="cls-2" d="m395.66,125.76v31.16h-15.58v-31.16c0-4.14.79-8.11,2.37-11.93,1.58-3.81,3.83-7.18,6.75-10.1,2.92-2.92,6.29-5.17,10.1-6.75,3.81-1.58,7.79-2.37,11.93-2.37v15.58c-4.3,0-7.97,1.52-11.01,4.56-3.04,3.04-4.56,6.71-4.56,11.01Z"/>
    <path class="cls-1" d="m342.8,78.46c-4.17,0-8.17-.8-12.01-2.39-3.84-1.59-7.23-3.86-10.18-6.8-2.94-2.94-5.21-6.33-6.8-10.18-1.59-3.84-2.39-7.85-2.39-12.01s.8-8.17,2.39-12.01c1.59-3.84,3.86-7.23,6.8-10.18,2.94-2.94,6.33-5.21,10.18-6.8,3.84-1.59,7.85-2.39,12.01-2.39s8.17.8,12.01,2.39c3.84,1.59,7.23,3.86,10.17,6.8,2.94,2.94,5.21,6.33,6.8,10.18,1.59,3.84,2.39,7.85,2.39,12.01s-.8,8.17-2.39,12.01c-1.59,3.84-3.86,7.23-6.8,10.18-2.94,2.94-6.33,5.21-10.17,6.8-3.84,1.59-7.85,2.39-12.01,2.39Zm-.86-15.71c4.99.23,9.18-1.5,12.55-5.2,2.4-2.63,3.82-6.05,3.99-9.61.23-4.99-1.51-9.18-5.2-12.55-2.63-2.4-6.05-3.82-9.61-3.98-5-.23-9.18,1.51-12.55,5.2-2.4,2.63-3.82,6.05-3.98,9.61-.23,4.99,1.5,9.18,5.2,12.55,2.63,2.4,6.05,3.82,9.61,3.98Z"/>
    <circle class="cls-2" cx="203.63" cy="56.16" r="3.3"/>
    <circle class="cls-2" cx="217.95" cy="56.16" r="3.3"/>
  </g>
</svg>